<?xml version="1.0" encoding="UTF-8"?>
<svg version="1.1" xmlns="http://www.w3.org/2000/svg" width="512" height="512">
<path d="M0 0 C11.24850204 8.06042392 17.0883211 19.76391363 19.78515625 33.15234375 C23.41155563 57.3181816 8.20683459 82.91304858 -0.59765625 104.64453125 C-1.48776098 106.84359147 -2.37777632 109.04268788 -3.2677002 111.24182129 C-5.42743698 116.57829823 -7.58827445 121.91432839 -9.75 127.25 C-8.77845836 127.24446924 -8.77845836 127.24446924 -7.78728962 127.23882675 C8.02304843 127.15022237 23.83329929 127.08416784 39.64382458 127.04275131 C47.28990319 127.02218666 54.93581537 126.99418386 62.58178711 126.94824219 C69.25140306 126.90818639 75.92089839 126.88252295 82.59063131 126.87364602 C86.11738331 126.86846269 89.64379043 126.85641012 93.17043114 126.82707977 C97.12173972 126.79448867 101.07272079 126.79405251 105.02416992 126.79589844 C106.17432587 126.78151733 107.32448181 126.76713623 108.50949097 126.75231934 C121.59317011 126.81802746 132.48582172 130.47162818 142.25 139.25 C155.47036676 152.69571392 155.60207923 169.16241662 155.48033142 186.8356781 C155.34615622 198.44424906 153.70828076 208.10113274 149.203125 218.87109375 C148.89892136 219.60350281 148.59471771 220.33591187 148.28129578 221.09051514 C144.3620809 230.46103012 140.20721665 239.72771585 136.0625 249 C135.18268891 250.97319415 134.30313741 252.94650406 133.42382812 254.91992188 C131.60337274 259.00500254 129.7818207 263.08959145 127.95947266 267.17382812 C124.12512106 275.76965291 120.30454452 284.37159297 116.48361206 292.97338867 C115.24939936 295.75135191 114.01457463 298.52904226 112.77954102 301.30664062 C108.91266285 310.00370196 105.04845079 318.70192145 101.19299316 327.40405273 C99.3952618 331.46128852 97.5961181 335.51789733 95.796875 339.57446289 C94.94916842 341.48674979 94.10213459 343.39933509 93.25585938 345.31225586 C90.60662424 351.30031904 87.93721666 357.27889232 85.25 363.25 C84.89049255 364.05451599 84.53098511 364.85903198 84.1605835 365.68792725 C83.12024118 368.00786403 82.06622822 370.32107497 81.0078125 372.6328125 C80.70683655 373.30846252 80.4058606 373.98411255 80.09576416 374.68023682 C74.14433474 387.52236832 62.48512177 396.76114303 49.74609375 402.42578125 C40.82156153 405.37269251 32.25609297 405.54780778 22.96240234 405.54052734 C21.42877885 405.54652111 19.89515835 405.5533286 18.36154175 405.56088257 C14.21655531 405.57846706 10.07165159 405.58323485 5.92663145 405.58451414 C3.32955421 405.58594101 0.73249765 405.59022078 -1.86457443 405.59550858 C-10.94635083 405.61398647 -20.02806871 405.62218232 -29.10986328 405.62060547 C-37.54010039 405.61940586 -45.97008073 405.64047839 -54.40025294 405.6720928 C-61.66601361 405.69835743 -68.93169097 405.70896846 -76.19749868 405.70769465 C-80.5244847 405.70718784 -84.85124248 405.71271323 -89.17818069 405.73405075 C-93.2544612 405.75360493 -97.33029983 405.75344214 -101.40659714 405.73901749 C-102.89031378 405.73694912 -104.37405935 405.74151037 -105.85772705 405.7537384 C-125.87225918 405.90781498 -143.60720608 400.18246733 -158.0390625 385.984375 C-158.93367188 385.08203125 -159.82828125 384.1796875 -160.75 383.25 C-161.58273438 382.43015625 -162.41546875 381.6103125 -163.2734375 380.765625 C-165.11585062 378.9426057 -166.94140779 377.10646671 -168.75 375.25 C-171.46006688 378.5837144 -171.46006688 378.5837144 -174 382.046875 C-182.75396299 394.48148152 -194.70917747 402.51030761 -209.75 405.25 C-212.50766951 405.52550236 -215.22982388 405.58491761 -218 405.5625 C-218.73943848 405.55686035 -219.47887695 405.5512207 -220.24072266 405.54541016 C-234.95351679 405.22313902 -246.81076451 399.76027553 -257.4609375 389.66796875 C-271.25540304 375.09668177 -273.05354996 358.84969589 -273.04052734 339.66162109 C-273.0465205 337.89302286 -273.05332785 336.12442722 -273.06088257 334.35583496 C-273.0784722 329.57449944 -273.08323504 324.79323562 -273.08451414 320.01187086 C-273.08594059 317.016946 -273.09021957 314.02203907 -273.09550858 311.02711868 C-273.11398742 300.55664168 -273.12218211 290.08621543 -273.12060547 279.61572266 C-273.1194055 269.89207812 -273.14048499 260.16865606 -273.1720928 250.44506776 C-273.19834367 242.06760481 -273.20896904 233.69021411 -273.20769465 225.3127104 C-273.20718749 220.3222893 -273.21273315 215.33206598 -273.23405075 210.34168625 C-273.25358163 205.64161844 -273.25345736 200.94193407 -273.23901749 196.24185181 C-273.23694638 194.52957211 -273.24152723 192.81726746 -273.2537384 191.10503006 C-273.38220238 171.82290802 -269.79399603 156.04652508 -256.23046875 141.57421875 C-244.53676958 130.61713056 -230.45133405 126.78055218 -214.8203125 127.0390625 C-201.13742085 127.55145927 -188.99941467 134.21332907 -179.2421875 143.50390625 C-175.42921519 147.70534753 -172.50443782 152.30517306 -169.75 157.25 C-161.69673546 150.53894621 -154.54884728 143.21824901 -147.75 135.25 C-146.96109375 134.35023438 -146.1721875 133.45046875 -145.359375 132.5234375 C-134.39505799 119.92286923 -124.80443476 106.25497544 -115.21899414 92.59472656 C-111.60649453 87.44752837 -107.94065241 82.3414041 -104.25 77.25 C-100.04303014 71.44441906 -95.87391031 65.61487508 -91.75 59.75 C-87.09108873 53.12426602 -82.36725809 46.54836855 -77.61206055 39.99145508 C-74.39739949 35.55211543 -71.22058927 31.08908656 -68.07739258 26.59887695 C-65.65135267 23.13751816 -63.20310609 19.69220666 -60.75 16.25 C-60.30527344 15.62125977 -59.86054688 14.99251953 -59.40234375 14.34472656 C-54.38275373 7.29857072 -49.65666615 1.14353476 -41.75 -2.75 C-40.93144531 -3.15863281 -40.11289062 -3.56726562 -39.26953125 -3.98828125 C-25.84896589 -9.75694376 -12.13426573 -7.47666878 0 0 Z M-37.75 23.25 C-39.858724 25.93858701 -41.83806205 28.71185429 -43.8125 31.5 C-44.37904297 32.29212891 -44.94558594 33.08425781 -45.52929688 33.90039062 C-49.7894449 39.86649337 -54.0123302 45.85922332 -58.23095703 51.85473633 C-64.53436253 60.80433416 -70.97188474 69.65705164 -77.39550781 78.52050781 C-83.22463945 86.5663027 -89.03237966 94.62446513 -94.75 102.75 C-96.7482706 105.58455705 -98.74851591 108.41771119 -100.75 111.25 C-101.27062012 111.98750488 -101.79124023 112.72500977 -102.32763672 113.48486328 C-112.01201654 127.16784079 -122.11369098 140.47717463 -133.50833321 152.79627037 C-134.95120231 154.37563564 -136.37334459 155.97432174 -137.76875114 157.5957737 C-141.55043489 161.96112742 -145.29892156 165.81972793 -149.90310669 169.31918335 C-159.01592659 176.52421991 -165.45734898 183.42891883 -166.9510864 195.24436104 C-167.71585866 203.18768964 -167.71249072 211.16226852 -167.63409948 219.13417101 C-167.6112112 222.64265276 -167.6507489 226.14941818 -167.68919861 229.65767992 C-167.77885228 237.95480116 -167.76651933 246.24733133 -167.68701172 254.54443359 C-167.60737346 263.0290838 -167.69500084 271.50013781 -167.86704338 279.98311293 C-168.01037324 287.33430127 -168.04986484 294.68129905 -168.00970757 302.0337671 C-167.98666504 306.39592651 -167.99844947 310.74961337 -168.11028671 315.11058426 C-168.50532152 332.17145788 -168.06842157 345.86308316 -155.80784798 358.73140526 C-140.14633143 374.24760165 -124.61583279 383.7464854 -102.00255585 383.64799118 C-101.32866066 383.64475468 -100.65476547 383.64151817 -99.96044922 383.63818359 C-98.51679083 383.64225927 -97.07313556 383.64760668 -95.62948608 383.65411377 C-91.74527228 383.66767258 -87.86130021 383.66253726 -83.97708273 383.65297651 C-79.89252212 383.64532298 -75.8079807 383.65244093 -71.72341919 383.65713501 C-64.8694491 383.66257488 -58.01557637 383.65544633 -51.16162109 383.64111328 C-43.25895647 383.6247771 -35.35652398 383.63008939 -27.45386493 383.6465925 C-20.64246263 383.66024241 -13.83112986 383.66211034 -7.01971829 383.65427649 C-2.96294486 383.64962086 1.09371973 383.64891685 5.15048599 383.65888596 C8.96411034 383.66760512 12.77743758 383.66144434 16.59103012 383.64420319 C17.98330952 383.64026515 19.37561429 383.6413259 20.7678833 383.64799118 C30.44971552 383.6900392 39.78691899 383.16638922 48 377.5 C49.01320313 376.82710938 49.01320313 376.82710938 50.046875 376.140625 C55.56065659 371.40894009 59.1762909 366.15021645 62.125 359.5625 C62.49391357 358.76183105 62.86282715 357.96116211 63.24291992 357.13623047 C64.59522274 354.1814072 65.92416507 351.21679456 67.25 348.25 C67.79926993 347.02423048 68.3485886 345.79848279 68.89794922 344.57275391 C72.57093209 336.36883066 76.2143335 328.15190657 79.85021973 319.93148804 C83.8037104 310.99415388 87.77427714 302.06443227 91.74511719 293.13479614 C93.42517272 289.35626464 95.10444149 285.57738371 96.78372192 281.79850769 C100.3048805 273.87491051 103.8270934 265.95178346 107.35092163 258.02937317 C109.15488454 253.97353688 110.95849694 249.91754476 112.76208496 245.86154175 C113.61404294 243.94587589 114.46616887 242.03028472 115.31848145 240.11477661 C117.25811342 235.75554727 119.19570593 231.39544973 121.12744141 227.03271484 C122.50891081 223.9131841 123.90243487 220.79951916 125.30615234 217.68994141 C125.93728639 216.27902141 126.5683147 214.86805411 127.19921875 213.45703125 C127.62204887 212.53188972 127.62204887 212.53188972 128.05342102 211.58805847 C134.01119227 198.18442015 136.04119355 178.51446413 132.06640625 164.171875 C129.18750174 157.39474094 124.83813801 153.3000639 118.25 150.25 C114.90492603 149.17930092 111.79979744 149.11798622 108.29786682 149.10523987 C106.47037903 149.09489212 106.47037903 149.09489212 104.60597229 149.08433533 C103.25888076 149.0816209 101.91178908 149.07898372 100.56469727 149.07641602 C99.14366453 149.07010853 97.72263377 149.06334251 96.30160522 149.05615234 C93.24324009 149.04149698 90.18488251 149.02976642 87.12649727 149.02020454 C82.28985652 149.00474018 77.45328094 148.98079171 72.61668396 148.95530701 C58.86388262 148.88413392 45.11104436 148.82430244 31.3581543 148.77319336 C23.76123817 148.74488644 16.16438731 148.70950564 8.56753963 148.66653961 C3.76026165 148.63977785 -1.04694255 148.62186636 -5.85428035 148.61050236 C-8.84604292 148.60137175 -11.83771582 148.58400805 -14.82942581 148.56432343 C-16.21572649 148.55685506 -17.60205017 148.55276729 -18.9883709 148.55232811 C-20.88256878 148.55124355 -22.77674496 148.53681803 -24.67088318 148.52174377 C-25.7303588 148.51751184 -26.78983442 148.5132799 -27.88141537 148.50891972 C-30.88295933 148.23799903 -33.06071606 147.59360172 -35.75 146.25 C-37.74081649 142.26836702 -37.31818811 136.4640565 -36.22491646 132.20390892 C-35.45869134 130.02875097 -34.61762185 127.901508 -33.73657227 125.77026367 C-33.41631073 124.96436798 -33.09604919 124.15847229 -32.76608276 123.32815552 C-31.71242741 120.68604765 -30.63960307 118.0521923 -29.56640625 115.41796875 C-28.82770814 113.57620011 -28.09025411 111.73393204 -27.35398865 109.89118958 C-25.41830347 105.05583908 -23.46635909 100.22721982 -21.51074219 95.39990234 C-19.52047716 90.47938975 -17.54480214 85.55303029 -15.56835938 80.62695312 C-13.34857007 75.09581658 -11.1273183 69.56531264 -8.89466858 64.03935242 C-8.55607315 63.20081223 -8.21747772 62.36227203 -7.86862183 61.49832153 C-7.23607011 59.93246177 -6.60278905 58.36689636 -5.96864319 56.80168152 C-2.47645387 48.15464368 -0.93774579 40.03450146 -3.80859375 30.87109375 C-6.83161106 24.32531914 -10.34882398 19.70308643 -16.75 16.25 C-25.78711864 13.23762712 -31.65161984 16.69269687 -37.75 23.25 Z M-243.5 161.0625 C-249.62319006 169.73701925 -250.86948601 178.13323963 -250.88371277 188.59187317 C-250.88597833 189.28515124 -250.88824388 189.97842932 -250.89057809 190.69271582 C-250.89685525 192.99153177 -250.89609281 195.29028781 -250.89526367 197.58911133 C-250.89825908 199.24729996 -250.90166249 200.9054879 -250.90544128 202.56367493 C-250.91424639 207.05140371 -250.91661792 211.5391134 -250.91725707 216.02684999 C-250.91796953 218.83511378 -250.92010756 221.64337277 -250.92275429 224.45163536 C-250.93199603 234.26146119 -250.93609063 244.07127347 -250.93530273 253.88110352 C-250.9347022 263.0048903 -250.94525237 272.12861791 -250.9610464 281.25238973 C-250.97414934 289.10319158 -250.97948548 296.95397416 -250.97884732 304.80478686 C-250.97859316 309.48594063 -250.98139944 314.16704177 -250.99202538 318.84818459 C-251.00175287 323.25346168 -251.00175384 327.65863632 -250.99450874 332.06391716 C-250.99346868 333.67347489 -250.99579114 335.28303916 -251.0018692 336.89258575 C-251.13496313 356.68831005 -251.13496313 356.68831005 -241.66796875 373.48046875 C-234.37076203 380.3052839 -227.13669527 383.65205641 -216.98828125 383.4609375 C-207.32816863 382.55056039 -200.64447553 378.23298634 -194 371.4375 C-187.87680994 362.76298075 -186.63051399 354.36676037 -186.61628723 343.90812683 C-186.6128889 342.86820972 -186.6128889 342.86820972 -186.60942191 341.80728418 C-186.60314475 339.50846823 -186.60390719 337.20971219 -186.60473633 334.91088867 C-186.60174092 333.25270004 -186.59833751 331.5945121 -186.59455872 329.93632507 C-186.58575361 325.44859629 -186.58338208 320.9608866 -186.58274293 316.47315001 C-186.58203047 313.66488622 -186.57989244 310.85662723 -186.57724571 308.04836464 C-186.56800397 298.23853881 -186.56390937 288.42872653 -186.56469727 278.61889648 C-186.5652978 269.4951097 -186.55474763 260.37138209 -186.5389536 251.24761027 C-186.52585066 243.39680842 -186.52051452 235.54602584 -186.52115268 227.69521314 C-186.52140684 223.01405937 -186.51860056 218.33295823 -186.50797462 213.65181541 C-186.49824713 209.24653832 -186.49824616 204.84136368 -186.50549126 200.43608284 C-186.50653132 198.82652511 -186.50420886 197.21696084 -186.4981308 195.60741425 C-186.36503687 175.81168995 -186.36503687 175.81168995 -195.83203125 159.01953125 C-203.12923797 152.1947161 -210.36330473 148.84794359 -220.51171875 149.0390625 C-230.17183137 149.94943961 -236.85552447 154.26701366 -243.5 161.0625 Z " fill="#000000" transform="translate(314.75,56.75)"/>
</svg>
